<?xml version="1.0" encoding="UTF-8"?>
<svg width="150px" height="151px" viewBox="0 0 150 151" version="1.1" xmlns="http://www.w3.org/2000/svg" xmlns:xlink="http://www.w3.org/1999/xlink">
    <!-- Generator: Sketch 60.1 (88133) - https://sketch.com -->
    <title>缺省</title>
    <desc>Created with Sketch.</desc>
    <g id="页面-1" stroke="none" stroke-width="1" fill="none" fill-rule="evenodd">
        <g id="Apple-TV" transform="translate(-886.000000, -390.000000)" fill-rule="nonzero">
            <g id="缺省-2" transform="translate(886.000000, 390.000000)">
                <g id="缺省">
                    <path d="M66.3144705,5.9817362 C66.3144705,6.1306978 66.0803882,6.27965925 65.8037453,6.27965925 L60.7177733,6.27965925 C60.4624107,6.27965925 60.2070479,6.13069764 60.2070479,5.9817362 L60.2070479,5.1943682 C60.2070479,5.04540659 60.4411303,4.89644515 60.7177733,4.89644515 L65.8037453,4.89644515 C66.0591079,4.89644515 66.3144705,5.04540675 66.3144705,5.1943682 L66.3144705,5.9817362" id="路径" fill="#E5E9F4"></path>
                    <path d="M30.0316991,59.7994074 C30.7552265,59.7994074 31.4149132,60.2250119 31.691556,60.8846985 C31.9681988,61.5443853 31.8192373,62.310473 31.2872319,62.7999181 C30.7552265,63.3106433 30.0104188,63.4596049 29.3294518,63.2042422 C28.6484848,62.9488794 28.2228805,62.2891928 28.2228805,61.5869457 C28.2016003,60.5867754 29.0102485,59.7994074 30.0316991,59.7994074 M70.4215527,41.4558594 C70.4215527,42.5198702 70.9961185,43.4774801 71.9324482,43.9882054 C72.8687778,44.4989308 74.0179095,44.4989306 74.9542389,43.9882054 C75.8905685,43.4774802 76.4651344,42.47731 76.4651344,41.4558594 C76.4651344,40.3918486 75.8905685,39.4129585 74.9542389,38.9235136 C74.0179093,38.4127884 72.8687776,38.4127884 71.9324482,38.9235136 C70.9961185,39.4129585 70.4215527,40.3918486 70.4215527,41.4558594 Z M93.9574736,6.7265439 C93.3829077,6.7265439 92.829622,6.51374177 92.4252979,6.10941757 C92.0209737,5.70509338 91.7868915,5.17308797 91.7868915,4.5985221 C91.7868915,3.44939036 92.7657815,2.4705003 93.9574736,2.4705003 C95.1491656,2.4705003 96.1280558,3.42811013 96.1280558,4.5985221 C96.1067756,5.7902143 95.1066053,6.7265439 93.9574736,6.7265439 Z M94.000034,0.00199498552 C91.4038475,0.00199498552 89.3183861,2.0661761 89.3183861,4.5985221 C89.3183861,7.1308681 91.446408,9.19504921 94.000034,9.19504921 C96.5962205,9.19504921 98.6816819,7.1308681 98.681682,4.5985221 C98.7242425,2.04489587 96.5962207,0.00199498552 94.000034,0.00199498552 Z M62.9096358,8.55664265 C62.7606742,8.55664265 62.6117126,8.34384052 62.6117126,8.06719754 L62.6117126,3.08762662 C62.6117126,2.83226403 62.7606742,2.59818167 62.9096358,2.59818167 L63.718284,2.59818167 C63.8672456,2.59818167 64.016207,2.8109838 64.016207,3.08762662 L64.016207,8.06719754 C64.016207,8.32256013 63.8672454,8.55664265 63.718284,8.55664265 L62.9096358,8.55664265 Z" id="形状" fill="#F5A623"></path>
                    <path d="M148.32843,109.403595 L139.624821,101.593755 C140.561151,97.2738711 141.071876,92.7411847 141.071876,88.187218 C141.071876,52.4577322 111.471093,23.4527951 74.8903984,23.4527951 C65.7186244,23.4527951 56.9511748,25.3041741 48.9923732,28.6026079 L41.3102145,20.7927679 C40.5015662,19.9841197 39.1396322,19.9628394 38.330984,20.7502074 C37.5010555,21.5375754 37.4584951,22.8782292 38.2884235,23.6655974 L44.9916922,30.4327066 C46.5025877,32.4543273 46.3536261,35.2845963 44.5448077,37.1572555 C42.5019068,39.2852773 39.0970719,39.3278378 36.9477699,37.306217 L35.6283963,36.0506841 L27.9036773,28.7302892 C25.8182159,26.7725093 22.5836228,26.85763 20.562002,28.8579705 C18.5616616,30.9008713 18.6467823,34.0929041 20.6896834,36.029404 L29.435853,44.2861285 C31.0957099,46.2439084 31.0531496,49.0954577 29.2868913,51.0106774 C27.3291114,53.1386992 23.9881172,53.2451003 21.8813756,51.3298807 L21.0514471,50.585073 L21.0088867,50.6276334 L13.4969697,43.9030845 C10.2410964,41.0089749 5.24024513,41.2430573 2.23973441,44.3925296 C-0.718215853,47.563282 -0.484133493,52.4577322 2.75045959,55.3944022 L13.2628872,64.8002586 C10.3687777,72.0568129 8.83660195,79.8666529 8.83660195,88.1020971 C8.83660195,109.488716 19.4341505,128.42811 35.7135172,140.217351 L114.280082,140.217351 C117.876439,137.599884 121.217433,134.663214 124.196663,131.407341 L127.686619,134.514252 C130.942492,137.365802 135.943344,137.17428 138.943854,134.024807 C141.923085,130.875335 141.667722,125.959605 138.433129,123.044215 L133.389717,118.63921 L133.389717,118.596649 L126.282125,112.233864 C124.771229,110.89321 124.664828,108.616227 126.048042,107.126612 C127.452537,105.636997 129.7508,105.551876 131.261696,106.91381 L136.60303,111.723139 L136.60303,111.680579 L141.880524,116.362227 C143.838304,118.128485 146.945216,117.979523 148.775315,116.064304 C150.456452,114.191644 150.328771,111.191134 148.32843,109.403595 L148.32843,109.403595 Z M25.3713313,86.6124818 C25.3713313,86.7614434 25.1372489,86.9104049 24.8606061,86.9104049 L22.9879469,86.9104049 L22.9879469,88.7405036 C22.9879469,88.9958662 22.8389853,89.2299488 22.6900238,89.2299488 L21.9026558,89.2299488 C21.7536942,89.2299488 21.6047328,89.0171466 21.6047328,88.7405036 L21.6047328,86.9104049 L19.7320735,86.9104049 C19.476711,86.9104049 19.2213484,86.7614433 19.2213484,86.6124818 L19.2213484,85.8251138 C19.2213484,85.6761522 19.4554307,85.5271908 19.7320735,85.5271908 L21.6047328,85.5271908 L21.6047328,83.697092 C21.6047328,83.4417294 21.7536944,83.2076471 21.9026558,83.2076471 L22.711304,83.2076471 C22.8602656,83.2076471 23.0092271,83.4204492 23.0092271,83.697092 L23.0092271,85.5271908 L24.8818863,85.5271908 C25.1372489,85.5271908 25.3926115,85.6761524 25.3926115,85.8251138 L25.3926115,86.6124818 L25.3713313,86.6124818 L25.3713313,86.6124818 Z M29.9891386,65.8004289 C28.8612871,65.8004289 27.7759959,65.3535442 26.9673476,64.5661762 C26.1586994,63.7788082 25.7118148,62.7147972 25.733095,61.6082259 C25.733095,59.2886822 27.6270344,57.4160229 30.0104188,57.4160229 C31.1382703,57.4160229 32.2235615,57.8629075 33.0322098,58.6289953 C33.840858,59.4163633 34.2877427,60.4803743 34.2877427,61.5869457 C34.2664624,63.9064894 32.3512428,65.8004289 29.9891386,65.8004289 L29.9891386,65.8004289 Z M69.5490636,37.497739 C70.5917944,36.4762885 71.9962887,35.9230029 73.4646237,35.9230029 C74.9329587,35.9230029 76.337453,36.4550083 77.3801838,37.497739 C78.4229145,38.5191896 78.9974804,39.8811234 78.9974804,41.3281782 C78.9974804,42.7539528 78.4441948,44.137167 77.3801838,45.1586174 C76.337453,46.1800679 74.9329587,46.7333536 73.4646237,46.7333536 C71.9962887,46.7333536 70.5917944,46.2013482 69.5490636,45.1586174 C68.5063328,44.1371669 67.9317671,42.775233 67.9317671,41.3281782 C67.9317671,39.9024037 68.4850528,38.5191894 69.5490636,37.497739 Z M114.684406,50.7127543 C114.684406,50.861716 114.450323,51.0106774 114.173681,51.0106774 L112.301021,51.0106774 L112.301021,52.8407761 C112.301021,53.0961387 112.15206,53.3302211 112.003098,53.3302211 L111.19445,53.3302211 C111.045489,53.3302211 110.896527,53.117419 110.896527,52.8407761 L110.896527,51.0106774 L109.023868,51.0106774 C108.768505,51.0106774 108.513143,50.8617158 108.513143,50.7127543 L108.513143,49.9679466 C108.513143,49.818985 108.747225,49.6700236 109.023868,49.6700236 L110.896527,49.6700236 L110.896527,47.8399248 C110.896527,47.5845622 111.045489,47.3504799 111.19445,47.3504799 L112.003098,47.3504799 C112.15206,47.3504799 112.301021,47.563282 112.301021,47.8399248 L112.301021,49.6700236 L114.173681,49.6700236 C114.429043,49.6700236 114.684406,49.8189852 114.684406,49.9679466 L114.684406,50.7127543 L114.684406,50.7127543 Z" id="形状" fill="#F5A623"></path>
                    <g id="手机" transform="translate(55.000000, 62.000000)" fill="#FFFFFF">
                        <path d="M31.7685854,4.14145038 L31.7685854,4.14145038 C32.9106789,4.14471587 33.835717,5.06975694 33.8389827,6.21185046 L33.8389827,52.454873 L33.8389827,52.4548532 C33.8357309,53.5969467 32.9107019,54.5219963 31.7686084,54.5252676 L6.23150575,54.5252676 L6.23150586,54.5252676 C5.08941234,54.522005 4.16437428,53.5969639 4.1611086,52.4548704 L4.1611086,6.21184785 L4.1611086,6.21186476 C4.16472223,5.06992021 5.08954406,4.14508267 6.23148862,4.14145038 L31.7685912,4.14145038 M31.7685912,-3.70992348e-06 L6.23154591,-3.70992348e-06 L6.23154616,-3.70992348e-06 C2.8050479,0.0101453182 0.029830613,2.78534932 0.0196897579,6.21185331 L0.0196897579,52.4548759 L0.0196897579,52.454802 C0.0297975092,55.8813003 2.80496748,58.6565176 6.23148865,58.6667155 L31.7685913,58.6667155 L31.7685912,58.6667155 C35.1950895,58.6565672 37.9703068,55.8813633 37.9804476,52.4548593 L37.9804476,6.21183674 L37.9804476,6.21190977 C37.9703396,2.78544016 35.1952157,0.0101942186 31.7687633,-3.70992348e-06 L31.7685912,-3.70992348e-06 Z M34.0112647,45.7942535 L3.98821934,45.7942535 L3.98821952,45.7942535 C1.7966102,45.7946178 0.0196841166,47.5711796 0.0196841166,49.7627889 L0.0196841166,52.7650934 L0.0196841166,52.7644341 C0.0196841166,54.9560434 1.79595129,56.7329007 3.98756061,56.7336283 L34.0112935,56.7336283 L34.0112934,56.7336283 C36.2029027,56.7332639 37.9798288,54.9567022 37.9798288,52.7650929 L37.9798288,49.7627884 L37.9798288,49.7634484 C37.9798288,47.5715813 36.2031606,45.7946151 34.0112935,45.7942535 L34.0112647,45.7942535 Z M18.930419,53.9042421 L18.9304189,53.9042421 C17.1961122,53.9042421 15.790173,52.4983087 15.790173,50.7639963 C15.790173,49.0296896 17.1961064,47.6237505 18.9304189,47.6237505 C20.6647256,47.6237505 22.0706649,49.0296839 22.0706649,50.7639963 C22.0706649,50.7639963 22.0706649,50.7639963 22.0706649,50.7639963 L22.0706649,50.763961 C22.0641703,52.4955635 20.6620617,53.8977099 18.9304534,53.9042421 L18.930419,53.9042421 Z" id="形状"></path>
                    </g>
                    <path d="M12.5180797,14.9832684 C15.4973102,14.9832684 17.8806946,17.3453725 17.8806946,20.2394823 C17.8806946,23.1548721 15.4547497,25.4956962 12.5180797,25.4956962 C9.53884919,25.4956962 7.1554648,23.133592 7.1554648,20.2394823 C7.1554648,17.3240925 9.53884919,14.9832684 12.5180797,14.9832684" id="形状" fill="#F5A623"></path>
                    <polygon id="路径" fill="#F5A623" points="129.389036 139.536384 133.049234 139.536384 133.049234 141.749526 129.389036 141.749526"></polygon>
                    <path d="M24.2221995,139.536384 L123.579537,139.536384 L123.579537,141.749526 L24.2221995,141.749526 L24.2221995,139.536384 M134.134525,140.685516 C134.134525,140.983439 134.006844,141.260082 133.815322,141.472884 C133.6238,141.664406 133.304597,141.792087 133.006674,141.792087 C132.70875,141.792087 132.432108,141.664406 132.198025,141.472884 C132.006503,141.281362 131.878822,140.983439 131.878822,140.685516 C131.878822,140.387593 131.985223,140.11095 132.198025,139.898147 C132.389547,139.706626 132.70875,139.578944 133.006674,139.578944 C133.66636,139.536384 134.134525,140.089669 134.134525,140.685516 Z M130.453047,140.685516 C130.453047,140.983439 130.325366,141.260082 130.133844,141.472884 C129.942322,141.685686 129.623119,141.792087 129.325196,141.792087 C129.027273,141.792087 128.75063,141.685686 128.516548,141.472884 C128.325026,141.281362 128.197344,140.983439 128.197344,140.685516 C128.197344,140.387593 128.325026,140.11095 128.516548,139.898147 C128.708069,139.706626 129.027273,139.578944 129.325196,139.578944 C129.942322,139.536384 130.453047,140.089669 130.453047,140.685516 Z" id="形状" fill="#F5A623"></path>
                    <path d="M73.5710248,143.920109 L93.8723528,143.920109 L93.8723528,146.133251 L73.5710248,146.133251 L73.5710248,143.920109 M43.2892748,143.920109 L62.3989104,143.920109 L62.3989104,146.133251 L43.2892748,146.133251 L43.2892748,143.920109 Z M65.8037453,145.239482 C65.8037453,145.707647 65.973987,146.154532 66.3357507,146.473735 C66.654954,146.792938 67.1231187,146.98446 67.5912836,146.98446 C68.0807286,146.98446 68.5276132,146.814218 68.8468165,146.473735 C69.1660198,146.154532 69.3788219,145.707647 69.3788219,145.239482 C69.3788219,144.771318 69.2085803,144.324433 68.8468165,144.00523 C68.5276132,143.686026 68.0594485,143.494504 67.5912836,143.494504 C66.6123936,143.515785 65.8037453,144.281872 65.8037453,145.239482 Z M25.3713313,140.685516 C25.3713313,140.983439 25.2436499,141.260082 25.052128,141.472884 C24.8606061,141.664406 24.5414028,141.792087 24.2434797,141.792087 C23.9455567,141.792087 23.6689139,141.685686 23.4348315,141.472884 C23.2433096,141.281362 23.1156282,140.983439 23.1156282,140.685516 C23.1156282,140.387593 23.2433096,140.11095 23.4348315,139.898147 C23.6263534,139.706626 23.9455567,139.578944 24.2434797,139.578944 C24.8606061,139.536384 25.3713313,140.089669 25.3713313,140.685516 L25.3713313,140.685516 Z M124.707388,140.685516 C124.707388,140.983439 124.579707,141.260082 124.388185,141.472884 C124.196663,141.664406 123.87746,141.792087 123.579537,141.792087 C123.281614,141.792087 123.004971,141.685686 122.770889,141.472884 C122.579367,141.281362 122.451685,140.983439 122.451685,140.685516 C122.451685,140.387593 122.579367,140.11095 122.770889,139.898147 C122.962411,139.706626 123.281614,139.578944 123.579537,139.578944 C124.196663,139.536384 124.707388,140.089669 124.707388,140.685516 L124.707388,140.685516 Z" id="形状" fill="#F5A623"></path>
                    <path d="M119.408614,148.537916 L127.856861,148.537916 L127.856861,150.751059 L119.387334,150.751059 L119.387334,148.537916 M93.61699,148.537916 L112.109499,148.537916 L112.109499,150.751059 L93.61699,150.751059 L93.61699,148.537916 Z M94.9789241,145.02668 C94.9789241,145.324603 94.8512427,145.601246 94.6597208,145.814048 C94.4681989,146.00557 94.1489956,146.133251 93.8510726,146.133251 C93.5531495,146.133251 93.2765067,146.00557 93.0424242,145.814048 C92.8509023,145.622526 92.7232209,145.324603 92.7232209,145.02668 C92.7232209,144.409554 93.2339461,143.920109 93.8510726,143.920109 C94.5107594,143.920109 94.9789241,144.452114 94.9789241,145.02668 L94.9789241,145.02668 Z M74.6350358,145.02668 C74.6350358,145.324603 74.5073544,145.601246 74.3158325,145.814048 C74.1243106,146.00557 73.8051074,146.133251 73.5071842,146.133251 C73.2092609,146.133251 72.9326183,146.00557 72.6985359,145.814048 C72.507014,145.622526 72.3793326,145.324603 72.3793326,145.02668 C72.3793326,144.409554 72.8900578,143.920109 73.5071842,143.920109 C74.1243105,143.920109 74.6350358,144.452114 74.6350358,145.02668 L74.6350358,145.02668 Z M63.5693224,145.02668 C63.5693224,145.324603 63.441641,145.601246 63.2501191,145.814048 C63.0585972,146.00557 62.7393939,146.133251 62.4414709,146.133251 C62.1435478,146.133251 61.866905,146.00557 61.6328226,145.814048 C61.4413007,145.622526 61.3136194,145.324603 61.3136194,145.02668 C61.3136194,144.409554 61.8243446,143.920109 62.4414709,143.920109 C63.037317,143.920109 63.5693224,144.452114 63.5693224,145.02668 L63.5693224,145.02668 Z M44.3532856,145.02668 C44.3532856,145.324603 44.2256043,145.601246 44.0340824,145.814048 C43.8425605,146.00557 43.5233572,146.133251 43.2254341,146.133251 C42.9275111,146.133251 42.6508683,146.00557 42.4167859,145.814048 C42.225264,145.622526 42.0975826,145.324603 42.0975826,145.02668 C42.0975826,144.409554 42.6083078,143.920109 43.2254341,143.920109 C43.8425605,143.920109 44.3532856,144.452114 44.3532856,145.02668 L44.3532856,145.02668 Z" id="形状" fill="#F5A623"></path>
                    <path d="M90.8080014,149.665768 C90.8080014,149.963691 90.68032,150.240333 90.4887981,150.453136 C90.2972762,150.644657 89.9780729,150.772339 89.6801499,150.772339 L87.7862104,150.772339 C87.4882874,150.772339 87.2116446,150.644657 86.9775622,150.453136 C86.7860403,150.261614 86.6583589,149.963691 86.6583589,149.665768 C86.6583589,149.367845 86.7860403,149.091202 86.9775622,148.8784 C87.1690841,148.686878 87.4882874,148.559196 87.7862104,148.559196 L89.6801499,148.559196 C90.275996,148.537916 90.8080014,149.069921 90.8080014,149.665768 M114.173681,150.772339 C113.939598,150.453136 113.811917,150.048811 113.811917,149.665768 C113.811917,148.580477 114.726966,147.707988 115.812257,147.707987 C116.918829,147.707987 117.812598,148.601757 117.812598,149.665768 C117.812598,150.091372 117.684916,150.453136 117.450834,150.772339 L119.94062,150.772339 C120.025741,150.474416 120.068301,150.155213 120.068301,149.857289 C120.068301,147.622867 118.174362,145.728927 115.854818,145.728927 C113.556554,145.728927 111.641335,147.580306 111.641335,149.857289 C111.641335,150.155213 111.683895,150.474416 111.769016,150.772339 L114.173681,150.772339 L114.173681,150.772339 Z M129.112394,149.665768 C129.112394,149.963691 128.984712,150.240333 128.79319,150.453136 C128.601668,150.644657 128.282465,150.772339 127.984542,150.772339 C127.686619,150.772339 127.409976,150.644657 127.175894,150.453136 C126.984372,150.261614 126.85669,149.963691 126.85669,149.665768 C126.85669,149.367845 126.984372,149.091202 127.175894,148.8784 C127.367416,148.686878 127.686619,148.559196 127.984542,148.559196 C128.622949,148.537916 129.112394,149.069921 129.112394,149.665768 L129.112394,149.665768 Z M94.7661219,149.665768 C94.7661219,149.963691 94.6384406,150.240333 94.4469187,150.453136 C94.2553968,150.644657 93.9361935,150.772339 93.6382703,150.772339 C93.3403471,150.772339 93.0637044,150.644657 92.829622,150.453136 C92.6381001,150.261614 92.5104188,149.963691 92.5104188,149.665768 C92.5104188,149.367845 92.6381001,149.091202 92.829622,148.8784 C93.0211439,148.686878 93.3403472,148.559196 93.6382703,148.559196 C94.2553966,148.537916 94.7661219,149.069921 94.7661219,149.665768 L94.7661219,149.665768 Z" id="形状" fill="#F5A623"></path>
                </g>
            </g>
        </g>
    </g>
</svg>