<?xml version="1.0" encoding="UTF-8"?>
<svg width="64px" height="64px" viewBox="0 0 64 64" version="1.1" xmlns="http://www.w3.org/2000/svg" xmlns:xlink="http://www.w3.org/1999/xlink">
    <!-- Generator: Sketch 59.1 (86144) - https://sketch.com -->
    <title>编组 2</title>
    <desc>Created with Sketch.</desc>
    <g id="页面-1" stroke="none" stroke-width="1" fill="none" fill-rule="evenodd" stroke-linecap="round" stroke-linejoin="round">
        <g id="连接钱包" transform="translate(-626.000000, -942.000000)" fill-rule="nonzero" stroke-width="0.797619048">
            <g id="编组-17" transform="translate(40.000000, 926.000000)">
                <g id="钱包1" transform="translate(586.000000, 16.000000)">
                    <g id="编组-11">
                        <g id="编组-2" transform="translate(4.785714, 6.380952)">
                            <g id="mm-logo">
                                <polygon id="路径" stroke="#E17726" fill="#E17726" points="50.9810976 0 30.029081 15.5030024 33.9252905 6.36657929"></polygon>
                                <polygon id="路径" stroke="#E27625" fill="#E27625" points="2.65262571 0 23.4180952 15.6476905 19.7085286 6.36656333"></polygon>
                                <polygon id="路径" stroke="#E27625" fill="#E27625" points="43.4370571 35.9461381 37.8623381 44.4624762 49.7993452 47.7491452 53.2188976 36.1323024"></polygon>
                                <polygon id="路径" stroke="#E27625" fill="#E27625" points="0.435037381 36.1323024 3.83375595 47.7491452 15.7501048 44.4624762 10.1960281 35.9461381"></polygon>
                                <polygon id="路径" stroke="#E27625" fill="#E27625" points="15.1075429 21.5594833 11.7917607 26.561831 23.604419 27.0992667 23.2107143 14.3868143"></polygon>
                                <polygon id="路径" stroke="#E27625" fill="#E27625" points="38.5254786 21.5596429 30.2981976 14.2422538 30.0287619 27.0994262 41.8413405 26.5619905"></polygon>
                                <polygon id="路径" stroke="#E27625" fill="#E27625" points="15.7502643 44.4624762 22.8999619 41.0105405 16.7450548 36.2149357"></polygon>
                                <polygon id="路径" stroke="#E27625" fill="#E27625" points="30.7336976 41.0105405 37.8626571 44.4624762 36.8886048 36.2149357"></polygon>
                                <polygon id="路径" stroke="#D5BFB2" fill="#D5BFB2" points="37.8626571 44.4627952 30.7336976 41.0108595 31.3138857 45.6410381 31.2516714 47.6047762"></polygon>
                                <polygon id="路径" stroke="#D5BFB2" fill="#D5BFB2" points="15.7502643 44.4627952 22.3819881 47.6047762 22.3405119 45.6410381 22.8999619 41.0108595"></polygon>
                                <polygon id="路径" stroke="#233447" fill="#233447" points="22.5060976 33.1557476 16.5789905 31.4194905 20.7652143 29.497069"></polygon>
                                <polygon id="路径" stroke="#233447" fill="#233447" points="31.1274024 33.1557476 32.8682857 29.497069 37.0752476 31.4194905"></polygon>
                                <polygon id="路径" stroke="#CC6228" fill="#CC6228" points="15.7501048 44.4624762 16.7863714 35.9461381 10.1961238 36.1323024"></polygon>
                                <polygon id="路径" stroke="#CC6228" fill="#CC6228" points="36.846969 35.9461381 37.8624976 44.4624762 43.4372167 36.1323024"></polygon>
                                <polygon id="路径" stroke="#CC6228" fill="#CC6228" points="41.8413405 26.5616714 30.0287619 27.0991071 31.1270833 33.1557476 32.8679667 29.4969095 37.0749286 31.419331"></polygon>
                                <polygon id="路径" stroke="#CC6228" fill="#CC6228" points="16.5789905 31.419331 20.7652143 29.4969095 22.5060976 33.1557476 23.604419 27.0991071 11.7917607 26.5616714"></polygon>
                                <polygon id="路径" stroke="#E27525" fill="#E27525" points="11.7921436 26.5616714 16.7452143 36.2149357 16.5793095 31.419331"></polygon>
                                <polygon id="路径" stroke="#E27525" fill="#E27525" points="37.0752476 31.419331 36.8887643 36.2149357 41.841819 26.5616714"></polygon>
                                <polygon id="路径" stroke="#E27525" fill="#E27525" points="23.6050571 27.0991071 22.5065762 33.1557476 23.8950714 40.3076786 24.2059833 30.8818952"></polygon>
                                <polygon id="路径" stroke="#E27525" fill="#E27525" points="30.029081 27.0991071 29.4487333 30.8613167 29.7389071 40.3076786 31.1274024 33.1557476"></polygon>
                                <polygon id="路径" stroke="#F5841F" fill="#F5841F" points="31.1274024 33.1559071 29.7389071 40.3078381 30.7336976 41.0107 36.8887643 36.2150952 37.0752476 31.4194905"></polygon>
                                <polygon id="路径" stroke="#F5841F" fill="#F5841F" points="16.5789905 31.4194905 16.7448952 36.2150952 22.8998024 41.0107 23.8945929 40.3078381 22.5060976 33.1559071"></polygon>
                                <polygon id="路径" stroke="#C0AC9D" fill="#C0AC9D" points="31.251831 47.6046167 31.3138857 45.6408786 30.7751738 45.1860762 22.8586452 45.1860762 22.3405119 45.6408786 22.3819881 47.6046167 15.7502643 44.4626357 18.0713357 46.364319 22.7756929 49.6096714 30.8372286 49.6096714 35.5623238 46.364319 37.8626571 44.4626357"></polygon>
                                <polygon id="路径" stroke="#161616" fill="#161616" points="30.7335381 41.0105405 29.7387476 40.3078381 23.8945929 40.3078381 22.8999619 41.0105405 22.3403524 45.6408786 22.8584857 45.1860762 30.7750143 45.1860762 31.3138857 45.6408786"></polygon>
                                <polygon id="路径" stroke="#763E1A" fill="#763E1A" points="51.8720381 16.515819 53.6336595 7.95821214 50.9809381 0 30.7336976 14.9863048 38.5257976 21.5594833 49.5302286 24.763519 51.9549905 21.9316524 50.8981452 21.1667357 52.5766548 19.6372214 51.29185 18.6449833 52.970519 17.363369"></polygon>
                                <polygon id="路径" stroke="#763E1A" fill="#763E1A" points="0 7.95821214 1.78226381 16.515819 0.642450238 17.363369 2.34180952 18.6449833 1.056925 19.6372214 2.73556214 21.1667357 1.67863714 21.9316524 4.10335119 24.763519 15.1078619 21.5594833 22.8999619 14.9863048 2.65267357 0"></polygon>
                                <polygon id="路径" stroke="#F5841F" fill="#F5841F" points="49.5303881 24.7633595 38.5259571 21.5594833 41.841819 26.561831 36.8887643 36.2149357 43.4375357 36.1323024 53.2192167 36.1323024"></polygon>
                                <polygon id="路径" stroke="#F5841F" fill="#F5841F" points="15.1075429 21.5594833 4.10317571 24.7633595 0.435037381 36.1323024 10.1960281 36.1323024 16.7447357 36.2149357 11.7917767 26.561831"></polygon>
                                <polygon id="路径" stroke="#F5841F" fill="#F5841F" points="30.0289214 27.0992667 30.7335381 14.9861452 33.9249714 6.36654738 19.708369 6.36654738 22.8998024 14.9861452 23.604419 27.0992667 23.8738548 30.9026333 23.8945929 40.3078381 29.7387476 40.3078381 29.7594857 30.9026333"></polygon>
                            </g>
                        </g>
                    </g>
                </g>
            </g>
        </g>
    </g>
</svg>