<?xml version="1.0" encoding="UTF-8"?>
<svg width="150px" height="141px" viewBox="0 0 150 141" version="1.1" xmlns="http://www.w3.org/2000/svg" xmlns:xlink="http://www.w3.org/1999/xlink">
    <!-- Generator: Sketch 59.1 (86144) - https://sketch.com -->
    <title>武器</title>
    <desc>Created with Sketch.</desc>
    <defs>
        <path d="M29.985199,2.61411311 C32.20294,2.80442298 34.2720011,3.80800012 35.794437,5.43181557 C47.9618037,17.9468213 60.1382878,30.443512 72.2965372,42.9767792 C73.4675316,44.1935159 73.9432506,44.1386255 75.0959513,42.9767792 C87.1352461,30.5075077 99.2476674,18.1114967 111.323592,5.68790574 C112.970306,3.98630055 114.928055,2.85190156 117.398132,2.63233441 C125.192564,1.95535268 133.005285,1.37900366 140.790561,0.702017909 C142.162815,0.583088697 142.373238,0.958173774 142.272599,2.10171827 C141.504134,9.1185352 140.790561,16.126208 140.131873,23.1704306 C139.903163,25.5947597 138.67728,27.4518827 136.719518,29.0619927 C122.722514,40.4883471 108.743746,51.9329898 94.7192558,63.3044658 C93.5482614,64.2558998 93.4201828,64.7499138 94.5362881,65.8385786 C97.8297149,69.0588118 100.958466,72.4162746 104.21529,75.6548096 C105.002052,76.4415722 105.157574,76.889844 104.21529,77.7589456 C99.1745235,82.2691091 94.1886491,86.8615969 89.2210093,91.4814903 C88.3793563,92.2682529 87.9219363,92.2042143 87.0802832,91.4997872 C83.0092407,88.0965768 78.8375721,84.7848617 74.7665429,81.363363 C73.8699994,80.6131944 73.4125768,80.7138271 72.5983709,81.3816598 C68.6005219,84.7208208 64.5294793,87.9319099 60.5590761,91.2893727 C59.4429721,92.2499548 58.8574709,92.1310257 57.8603014,91.1704434 C53.0039822,86.6317023 48.1008745,82.1432596 43.1517511,77.705874 C42.3283957,76.9557054 42.2552075,76.5623241 43.0694155,75.7755575 C46.4360224,72.4363965 49.6105215,68.9874519 53.0045743,65.6757233 C54.0108987,64.6693989 53.8187815,64.2302754 52.7941607,63.4160695 C38.7675258,52.0244549 24.7980083,40.5797988 10.7735186,29.1808366 C8.63279251,27.4517855 7.40691168,25.4299872 7.15075447,22.8135502 C6.51036682,15.915661 5.83338509,8.99942982 5.09236607,2.10162107 C4.93684292,0.701920716 5.42170875,0.326835773 6.43717464,0.701920716 C14.5152747,1.35163417 22.2456446,1.93713138 29.985199,2.61411311 Z M56.0360209,120.353994 L56.0360209,120.353994 C54.3282749,120.355972 52.6995683,119.634685 51.5533033,118.368786 C48.9460104,115.743191 46.3204158,113.1542 43.7405689,110.501159 C43.0452908,109.787585 42.6244649,109.668655 41.8285541,110.455417 C36.0284738,116.337835 30.182646,122.165362 24.3276739,127.974666 C23.641544,128.660796 23.5958017,129.063326 24.3276739,129.712862 L24.327674,129.712862 C25.172242,130.461486 25.9754332,131.255517 26.7337015,132.091443 C28.0236263,133.527747 27.9229936,135.137857 26.5415856,136.574161 C25.0961376,138.037911 23.3121947,138.239163 21.9033502,136.848613 L21.9034699,136.848732 C14.9684275,129.981962 8.07044444,123.077919 1.20977547,116.136803 C-0.253974246,114.654764 -0.135033101,113.035497 1.38359499,111.526013 C2.84734471,110.062263 4.50320227,109.989083 6.01268621,111.352194 L6.16820936,111.480271 C7.25686877,112.367666 8.04363408,114.307131 9.28781664,114.133312 C10.4313665,113.950344 11.3736509,112.321923 12.3891222,111.297307 C17.3932983,106.320577 22.3517269,101.279811 27.4016372,96.3213958 C28.2707349,95.4797427 28.3164771,95.0314709 27.4016372,94.1623679 C24.7760426,91.6557011 22.2510875,89.0758541 19.6986864,86.4777188 C16.917574,83.6417146 16.917574,80.2019142 19.7261316,77.3476217 C20.1926997,76.8536077 20.6867138,76.3504468 21.1898813,75.883872 C24.1173673,73.0295661 27.502276,73.0295661 30.429762,75.9570592 C40.9595729,86.4777125 51.4711223,97.0166541 61.982618,107.555636 C64.9558517,110.556316 64.9558517,113.932067 62.0100632,116.932746 C59.1557573,119.814498 58.2134796,120.354245 56.0361635,120.354245 L56.0360209,120.353994 Z M129.040221,81.8758431 L129.040221,81.875855 C129.054842,83.5847005 128.351136,85.2211434 127.100747,86.3860051 C124.475153,88.993298 121.922752,91.6188926 119.260567,94.1987395 C118.492102,94.9489081 118.318282,95.3697339 119.214825,96.229682 C125.042351,101.993172 130.851589,107.756662 136.596777,113.5934 C137.374392,114.389311 137.822662,114.33442 138.517936,113.538509 C139.213214,112.724302 139.981686,112.00158 140.77759,111.288 C142.186448,110.025521 143.869751,110.098708 145.260308,111.434375 C146.797238,112.92557 147.025949,114.608874 145.58965,116.045164 C138.664315,123.016247 131.720692,129.950726 124.749542,136.876021 C123.358986,138.266577 121.547597,138.019571 120.129595,136.510086 C118.739039,135.046336 118.693291,133.48196 120.010666,132.018224 C120.184485,131.81696 120.358305,131.670585 120.532124,131.496765 C123.185165,128.816279 123.185165,128.816279 120.577866,126.190698 C115.445618,121.05845 110.285924,115.971936 105.226803,110.766561 C104.15644,109.668754 103.607535,109.769386 102.646956,110.812303 C100.414748,113.190885 98.0727565,115.450539 95.767355,117.737638 C92.2269286,121.278065 89.0981771,121.305511 85.6034849,117.78338 C85.3015881,117.463186 84.9813936,117.161289 84.688645,116.841095 C81.8068932,113.941054 81.7794607,110.49211 84.6611998,107.59207 C92.2543671,99.9806007 99.8658495,92.3691853 107.477359,84.7759107 C110.459737,81.830123 113.405524,78.8477451 116.387902,75.9019708 C119.287942,73.020219 122.691153,73.0476649 125.636927,75.9019708 C128.418039,78.7013849 129.040137,79.771748 129.040137,81.8758706 L129.040221,81.8758431 Z" id="path-1"></path>
    </defs>
    <g id="页面-1" stroke="none" stroke-width="1" fill="none" fill-rule="evenodd" opacity="0.400000006">
        <g id="2备份-6" transform="translate(-309.000000, -600.000000)">
            <g id="武器-2" transform="translate(309.000000, 600.000000)">
                <g id="武器" transform="translate(0.000000, 1.000000)">
                    <g id="路径-2" transform="translate(0.124643, 0.027277)">
                        <mask id="mask-2" fill="white">
                            <use xlink:href="#path-1"></use>
                        </mask>
                        <use id="蒙版" fill="#2A2A2A" fill-rule="nonzero" xlink:href="#path-1"></use>
                    </g>
                </g>
            </g>
        </g>
    </g>
</svg>