<?xml version="1.0" encoding="UTF-8"?>
<svg width="52px" height="51px" viewBox="0 0 52 51" version="1.1" xmlns="http://www.w3.org/2000/svg" xmlns:xlink="http://www.w3.org/1999/xlink">
    <!-- Generator: Sketch 60.1 (88133) - https://sketch.com -->
    <title>Logo GitHub</title>
    <desc>Created with Sketch.</desc>
    <g id="页面-1" stroke="none" stroke-width="1" fill="none" fill-rule="evenodd">
        <g id="侧边栏" transform="translate(-629.000000, -1124.000000)" fill="#D2332C" fill-rule="nonzero">
            <g id="编组-4" transform="translate(51.000000, 1119.000000)">
                <g id="编组-8" transform="translate(558.000000, 5.000000)">
                    <g id="Logo-GitHub-2" transform="translate(20.000000, 0.000000)">
                        <g id="Logo-GitHub">
                            <path d="M51.8842791,26.0000303 L51.88428,26.000131 C51.9337328,31.4765397 50.1938921,36.8193428 46.9291922,41.2164964 L46.9291931,41.2164952 C43.7847636,45.609241 39.3227623,48.8861487 34.1903462,50.571885 L34.1903461,50.5718851 C33.733196,50.699372 33.2428482,50.6108367 32.8591446,50.331529 L32.8591446,50.331529 C32.5818791,50.0680171 32.4333428,49.6966763 32.4523883,49.3146383 L32.4523883,42.2149035 L32.4523884,42.2149027 C32.6018383,40.43776 31.9590429,38.685297 30.6959391,37.426276 L30.6959397,37.426276 C31.8550688,37.3126416 33.0044073,37.1149063 34.1348652,36.8346331 L34.1348655,36.834633 C35.2444523,36.5369941 36.3081633,36.0891177 37.2964691,35.5034315 L37.2964703,35.5034309 C38.3320332,34.9386056 39.2536327,34.1862805 40.0143367,33.2847599 L40.014337,33.2847596 C40.8498317,32.2292041 41.4772449,31.0245648 41.8632286,29.7348871 L41.863229,29.7348857 C42.3538145,28.0854834 42.5907169,26.3710709 42.5658087,24.6504579 L42.5658088,24.650454 C42.6235243,22.0758721 41.6596671,19.5831395 39.8849162,17.7171296 L39.8849162,17.7171295 C40.7190145,15.4816754 40.6258358,13.0056905 39.6260717,10.8392583 L39.6260719,10.8392583 C38.7038275,10.6711021 37.7519979,10.8006022 36.9082004,11.2090366 L36.9082013,11.2090363 C35.8264071,11.5980166 34.7859234,12.0934842 33.8020711,12.6881435 L32.526338,13.4831655 L32.5263396,13.483166 C28.2934077,12.2998345 23.8170404,12.2998345 19.5841136,13.4831651 C19.2143353,13.2243205 18.7521126,12.9469855 18.1604698,12.5772062 L18.1604699,12.5772063 C17.2395052,12.0403463 16.27464,11.5826188 15.2762591,11.2089547 L15.2762595,11.2089549 C14.3810561,10.754388 13.3656178,10.5926932 12.3734983,10.7467317 L12.3734985,10.7467312 C11.3766157,12.9344103 11.2901504,15.4286105 12.1331424,17.6800557 L12.1331424,17.6800557 C10.3831627,19.5751786 9.42978421,22.0711815 9.47073934,24.6503997 L9.47073863,24.6504454 C9.44438059,26.3590283 9.68135614,28.0614818 10.1733285,29.6979146 L10.1733285,29.6979144 C10.574516,30.9813663 11.2005429,32.1833345 12.0222201,33.2477869 L12.0222198,33.2477865 C12.7660745,34.1759673 13.690726,34.9433643 14.7400913,35.5034313 L14.7400891,35.5034301 C15.7413645,36.0629589 16.8017442,36.5094383 17.9016877,36.8346317 L17.9016864,36.8346313 C19.0381315,37.1161792 20.1937109,37.3139257 21.3591115,37.4262742 L21.3591116,37.4262741 C20.3913925,38.3375955 19.7981043,39.5769032 19.6951097,40.9021887 L19.6951098,40.9021886 C19.2087157,41.1337458 18.6921078,41.2955757 18.1605291,41.3829003 L18.1605294,41.3829002 C17.5509962,41.4975329 16.9318451,41.5532563 16.3116428,41.5493004 L16.3116427,41.5493004 C15.4622339,41.5547189 14.6332239,41.2891635 13.9450559,40.7912167 L13.9450553,40.7912163 C13.1787958,40.2358465 12.5469697,39.5155644 12.0961637,38.6834822 L12.0961638,38.6834823 C11.6881583,37.9865342 11.132883,37.3870913 10.4691408,36.9270381 L10.4691411,36.9270383 C9.9745073,36.5472383 9.40865981,36.2706036 8.80513919,36.1135268 L8.13953841,36.1135268 L8.13953835,36.1135268 C7.80617277,36.0942262 7.4724446,36.1446005 7.15962666,36.261438 C6.9747375,36.3723713 6.9192706,36.5017941 6.99322647,36.6497053 L6.9932264,36.6497052 C7.08075307,36.8148257 7.18615577,36.9698296 7.30753782,37.1119279 L7.30753793,37.111928 C7.44145637,37.267591 7.59005365,37.4099965 7.75127161,37.5371727 L7.99162767,37.6850839 L7.99162778,37.685084 C8.57191596,37.9972093 9.07678373,38.432661 9.47074005,38.9608171 L9.47074029,38.9608174 C9.8833887,39.4874145 10.2368068,40.057846 10.5246099,40.6617983 L10.8574103,41.4383308 L10.8574103,41.4383309 C11.1197338,42.2723377 11.6370557,43.0030553 12.3365225,43.5275755 L12.3365225,43.5275754 C13.0018236,44.0098003 13.7659554,44.3381873 14.5736829,44.4889976 L14.5736826,44.4889976 C15.3398354,44.6493472 16.120532,44.7298955 16.9032853,44.7293536 L16.9032855,44.7293536 C17.5221878,44.7406912 18.1408869,44.6973824 18.7521771,44.5999314 L19.5287096,44.4705091 L19.5287096,49.3146042 L19.5287097,49.3146071 C19.5358309,49.7019939 19.3738226,50.0732596 19.0849735,50.3314977 L19.0849734,50.3314978 C18.6934485,50.6089222 18.1985095,50.6970618 17.7352824,50.5718534 L17.7352834,50.5718537 C12.6187618,48.8644896 8.18144027,45.5672745 5.07037415,41.1610107 L5.07037434,41.161011 C1.78888107,36.7936965 0.0464626394,31.4623903 0.115347485,26.0000988 L0.115346537,25.999939 C0.088374654,21.4516907 1.28925298,16.9804168 3.59134238,13.057713 L3.59134125,13.057715 C5.85223685,9.11927914 9.11914065,5.85240581 13.0575866,3.59152036 L13.0575844,3.59152168 C16.9803136,1.28945768 21.4515824,0.0886066697 25.9998104,0.115156534 L25.9998102,0.115156534 C30.5480585,0.0886013386 35.0193324,1.2894526 38.9420362,3.59151661 L38.9420369,3.591517 C42.8805337,5.85241768 46.1474476,9.11936718 48.4083839,13.0578132 L48.4083837,13.0578129 C50.712154,16.9798312 51.913137,21.4515571 51.8842983,26.0000389 L51.8842791,26.0000303 Z" id="路径"></path>
                        </g>
                    </g>
                </g>
            </g>
        </g>
    </g>
</svg>